# Blender 3.6.2
# www.blender.org
mtllib roca.mtl
o roca
v 1.670236 0.359137 0.006815
v -0.079539 0.057846 0.987158
v -1.055860 0.053410 -0.702205
v 0.673914 0.466681 -1.670975
v 1.318943 1.630693 0.221526
v -0.095936 2.111580 1.048539
v -1.056112 2.223538 -0.563612
v 0.134497 1.976828 -1.261067
v -1.993717 1.369889 -0.065174
v -1.057632 1.309842 1.561156
v -1.863971 0.388697 -0.201576
v -0.907432 0.332992 1.462222
v -1.784310 0.581489 -1.431551
v -1.837563 1.132190 -1.190438
v -0.584893 1.636050 -1.919372
v -1.242015 1.693382 -1.546154
v -0.455455 0.771321 -2.466852
v -1.423004 0.476571 -1.945853
v 0.441872 0.632400 2.466852
v 0.120493 1.236112 2.221768
v 0.790883 1.440344 1.889493
v 1.574597 1.308872 1.421658
v 1.067658 0.181884 2.313233
v 1.993717 0.439130 1.745883
v 1.059644 2.012528 -0.472368
v 1.077444 1.881307 0.081671
v 0.807962 2.455349 -0.368598
v 0.816794 2.522491 0.097166
v 0.794948 2.418156 0.478400
v 0.986232 2.110853 0.397937
v -1.441275 2.020758 0.108301
v -1.428115 2.171255 -0.452403
v -1.221011 2.642776 0.129186
v -1.220089 2.613518 -0.256525
v -1.212739 2.356380 0.483174
v -1.304927 2.074901 0.398571
v 0.200219 1.954616 0.741920
v -0.779422 1.978786 0.745040
v 0.203909 2.453216 0.833530
v -0.753958 2.479697 0.837062
v -0.747042 2.789509 -0.408886
v -0.739613 2.915462 0.295338
v 0.218179 2.862485 0.277540
v 0.210573 2.617007 -0.558876
v -0.788936 2.018548 -0.751701
v -0.796167 1.807583 0.260165
v 0.199677 1.814180 0.254744
v 0.207087 1.967990 -0.768917
vn 0.8167 -0.4780 -0.3232
vn -0.0637 -0.9900 0.1257
vn -0.1621 -0.9793 -0.1213
vn 0.6253 -0.4389 -0.6453
vn 0.6917 0.7037 -0.1622
vn 0.4228 0.7886 -0.4465
vn -0.3167 0.9459 -0.0700
vn -0.0354 0.9485 0.3149
vn -0.9152 0.3532 0.1943
vn -0.6509 0.3612 0.6678
vn -0.5775 -0.6029 0.5504
vn -0.7910 -0.5966 0.1359
vn -0.5136 0.6623 -0.5455
vn -0.8953 0.2874 -0.3404
vn -0.8432 -0.3600 -0.3992
vn -0.5176 -0.4648 -0.7183
vn 0.0780 -0.1962 -0.9775
vn 0.0004 0.6525 -0.7578
vn 0.3160 -0.5945 0.7394
vn -0.0468 -0.2079 0.9770
vn -0.1894 0.4242 0.8855
vn 0.2980 0.7128 0.6349
vn 0.7142 0.6290 0.3070
vn 0.8618 -0.3168 0.3960
vn 0.8014 -0.5910 0.0920
vn 0.6961 0.7158 0.0559
vn 0.6733 0.4272 0.6034
vn 0.8263 -0.2043 0.5249
vn 0.7725 -0.3135 -0.5522
vn 0.6179 0.6317 -0.4681
vn 0.0819 -0.9897 0.1176
vn 0.1262 -0.4774 -0.8696
vn 0.1989 0.7046 -0.6812
vn 0.2518 0.9496 0.1868
vn 0.2558 0.3624 0.8963
vn 0.1944 -0.6021 0.7744
vn -0.7312 0.6591 0.1757
vn -0.8784 -0.4687 0.0936
vn -0.7631 -0.3634 0.5345
vn -0.7406 0.2842 0.6089
vn -0.6608 0.6496 -0.3760
vn -0.8094 -0.1997 -0.5522
vn -0.2486 -0.4400 -0.8629
vn -0.1814 -0.9801 0.0807
vn -0.2219 0.9450 0.2404
vn -0.1817 0.7878 -0.5885
vn -0.2714 -0.5977 0.7544
vn -0.2864 0.3519 0.8911
vt 0.433746 0.346058
vt 0.385416 0.000000
vt 0.744838 0.053968
vt 0.630879 0.349769
vt 0.451162 0.481238
vt 0.607184 0.521714
vt 0.606558 0.631135
vt 0.464684 0.636579
vt 0.612850 0.734474
vt 0.470689 0.747953
vt 0.740601 0.928495
vt 0.424944 1.000000
vt 0.460191 0.853062
vt 0.655008 0.822435
vt 0.693999 0.608644
vt 0.723529 0.705044
vt 0.814231 0.726461
vt 0.928133 0.741229
vt 0.836239 0.429203
vt 0.706767 0.535110
vt 0.928132 0.232018
vt 0.911301 0.661516
vt 0.098782 0.871746
vt 0.206024 0.752428
vt 0.336260 0.714444
vt 0.324368 0.619680
vt 0.324730 0.511969
vt 0.142256 0.421414
vt 0.066248 0.199382
vt 0.062500 0.659147
s 1
usemtl Material
f 1/1/1 2/2/2 3/3/3 4/4/4
f 5/5/5 8/6/6 7/7/7 6/8/8
f 5/5/5 1/1/1 4/4/4 8/6/6
f 6/8/8 7/7/7 9/9/9 10/10/10
f 3/11/3 2/12/2 12/13/11 11/14/12
f 12/13/11 10/10/10 9/9/9 11/14/12
f 9/9/9 7/7/7 16/15/13 14/16/14
f 11/14/12 9/9/9 14/16/14 13/17/15
f 3/11/3 11/14/12 13/17/15 18/18/16
f 8/6/6 4/4/4 17/19/17 15/20/18
f 7/7/7 8/6/6 15/20/18 16/15/13
f 4/4/4 3/3/3 18/21/16 17/19/17
f 18/22/16 16/15/13 15/20/18 17/19/17
f 16/15/13 18/22/16 13/17/15 14/16/14
f 12/13/11 2/12/2 23/23/19 19/24/20
f 10/10/10 12/13/11 19/24/20 20/25/21
f 6/8/8 10/10/10 20/25/21 21/26/22
f 1/1/1 5/5/5 22/27/23 24/28/24
f 5/5/5 6/8/8 21/26/22 22/27/23
f 2/2/2 1/1/1 24/28/24 23/29/19
f 24/28/24 22/27/23 21/26/22 23/30/19
f 23/30/19 21/26/22 20/25/21 19/24/20
f 26/30/25 28/26/26 29/25/27 30/24/28
f 25/28/29 27/27/30 28/26/26 26/30/25
f 47/2/31 48/1/32 25/28/29 26/29/25
f 44/5/33 43/8/34 28/26/26 27/27/30
f 48/1/32 44/5/33 27/27/30 25/28/29
f 43/8/34 39/10/35 29/25/27 28/26/26
f 39/10/35 37/13/36 30/24/28 29/25/27
f 37/13/36 47/12/31 26/23/25 30/24/28
f 33/15/37 31/22/38 36/17/39 35/16/40
f 31/22/38 33/15/37 34/20/41 32/19/42
f 45/4/43 46/3/44 31/21/38 32/19/42
f 42/7/45 41/6/46 34/20/41 33/15/37
f 41/6/46 45/4/43 32/19/42 34/20/41
f 46/11/44 38/14/47 36/17/39 31/18/38
f 38/14/47 40/9/48 35/16/40 36/17/39
f 40/9/48 42/7/45 33/15/37 35/16/40
f 37/13/36 39/10/35 40/9/48 38/14/47
f 46/11/44 47/12/31 37/13/36 38/14/47
f 43/8/34 42/7/45 40/9/48 39/10/35
f 44/5/33 48/1/32 45/4/43 41/6/46
f 44/5/33 41/6/46 42/7/45 43/8/34
f 48/1/32 47/2/31 46/3/44 45/4/43
